<?xml version="1.0" ?><svg id="social_x5F_invite_x5F_friends" style="enable-background:new 0 0 30 32;" version="1.1" viewBox="0 0 30 32" xml:space="preserve" xmlns="http://www.w3.org/2000/svg" xmlns:xlink="http://www.w3.org/1999/xlink"><g><g><polygon points="22,32 4,32 4,26 6,26 6,30 20,30 20,10 6,10 6,16 4,16 4,8 22,8   " style="fill:#FD5C3F;"/></g><g><path d="M13,20c-1.654,0-3-1.346-3-3s1.346-3,3-3s3,1.346,3,3S14.654,20,13,20z M13,16    c-0.552,0-1,0.448-1,1s0.448,1,1,1s1-0.448,1-1S13.552,16,13,16z" style="fill:#FD5C3F;"/></g><g><polygon points="18,26 16,26 16,24.414 14.586,23 11.414,23 10,24.414 10,26 8,26 8,23.586 10.586,21     15.414,21 18,23.586   " style="fill:#FD5C3F;"/></g><g><polygon points="26,28 24,28 24,6 8,6 8,4 26,4   " style="fill:#FD5C3F;"/></g><g><polygon points="30,24 28,24 28,2 12,2 12,0 30,0   " style="fill:#FD5C3F;"/></g><g><rect height="2" style="fill:#FD5C3F;" width="6" y="20"/></g><g><rect height="6" style="fill:#FD5C3F;" width="2" x="2" y="18"/></g></g></svg>